<?xml version="1.0" encoding="UTF-8"?>
<svg version="1.1" xmlns="http://www.w3.org/2000/svg" width="487" height="421">
<path d="M0 0 C1.93465567 0.05169885 1.93465567 0.05169885 3.90839529 0.10444212 C31.51624067 0.85429545 59.09441652 2.0478342 86.65307617 3.8659668 C87.64104938 3.93068251 88.6290226 3.99539822 89.64693439 4.06207502 C92.3749701 4.24378844 95.10230744 4.43327113 97.82951355 4.6269989 C98.63308422 4.68139743 99.4366549 4.73579597 100.2645762 4.79184294 C105.69554044 5.19554044 105.69554044 5.19554044 106.8125 6.3125 C106.92581828 8.91183094 106.97366259 11.48516403 106.9798584 14.08558655 C106.98565178 14.90975758 106.99144517 15.7339286 106.99741411 16.58307451 C107.01556553 19.36665651 107.02637214 22.15021808 107.03710938 24.93383789 C107.04827817 26.92098174 107.05979128 28.90812367 107.07162476 30.89526367 C107.10826613 37.44186764 107.13341536 43.98849124 107.15625 50.53515625 C107.16019587 51.64802907 107.16414173 52.76090189 107.16820717 53.90749812 C107.20463513 64.39960708 107.23608855 74.89172264 107.25731659 85.38387394 C107.28488867 98.81474649 107.33563497 112.24509068 107.41779089 125.67574316 C107.47356571 135.11274772 107.50255052 144.54960889 107.5117898 153.98677248 C107.51805109 159.62559862 107.53620645 165.26380611 107.58317566 170.90245247 C107.62684255 176.21071723 107.63733009 181.51802508 107.62254715 186.8264389 C107.62287585 188.77270207 107.63515572 190.7190063 107.66039658 192.66510582 C107.86354155 209.20374555 107.86354155 209.20374555 103.86880493 213.91888428 C102.5442002 215.0821669 101.18981864 216.21213755 99.8125 217.3125 C98.2894492 218.84883114 96.78084777 220.3995686 95.28390503 221.96134949 C93.55885026 223.68927175 91.83108034 225.41448625 90.10107422 227.13745117 C89.14243421 228.09580843 88.18401569 229.05438727 87.22579956 230.01316833 C84.64554929 232.59370335 82.06224551 235.1711612 79.47834921 237.74804473 C76.76428394 240.45581371 74.05309334 243.16645803 71.34158325 245.87678528 C66.21092263 251.00434768 61.07772152 256.12935885 55.9435817 261.25343734 C50.11512254 267.07072018 44.28949911 272.89083925 38.46411872 278.71120489 C28.50362773 288.66302562 18.54102366 298.61272667 8.5760498 308.56005859 C3.74753325 313.37967288 3.74753325 313.37967288 -1.07763672 318.20263672 C-2.8484539 319.9734539 -4.62179267 321.7416224 -6.39794922 323.50708008 C-9.60025312 326.69149073 -12.79942769 329.87902564 -15.99755859 333.06762695 C-17.36970403 334.43474324 -18.7427456 335.80096071 -20.11669922 337.16625977 C-22.11928694 339.15659851 -24.11852127 341.15025553 -26.1171875 343.14453125 C-26.72158661 343.74376907 -27.32598572 344.3430069 -27.94869995 344.96040344 C-31.6771902 348.68841143 -35.2031354 352.54141386 -38.63816833 356.54174805 C-40.77113531 358.97954463 -43.05599501 361.23998401 -45.375 363.5 C-47.8986849 365.96009599 -50.1537242 368.26637191 -52.23828125 371.11328125 C-52.88152344 371.83902344 -53.52476562 372.56476563 -54.1875 373.3125 C-55.5075 373.3125 -56.8275 373.3125 -58.1875 373.3125 C-59.62819259 344.64637907 -60.69541037 315.98583628 -61.34804249 287.29051685 C-61.41022928 284.61072094 -61.4737507 281.93096001 -61.53833008 279.2512207 C-61.55433101 278.58536147 -61.57033195 277.91950224 -61.58681776 277.23346546 C-61.83261678 267.25464738 -62.26082769 257.2948671 -62.78930664 247.32641602 C-67.78704449 151.22282219 -67.78704449 151.22282219 -42.39866054 122.02705944 C-29.3984325 107.67227364 -13.81678077 94.32049723 2.8125 84.3125 C3.4725 84.3125 4.1325 84.3125 4.8125 84.3125 C5.06700928 83.73129395 5.32151855 83.15008789 5.58374023 82.55126953 C6.94308676 80.07457419 8.45161097 78.46115555 10.47265625 76.4921875 C11.18357422 75.79222656 11.89449219 75.09226562 12.62695312 74.37109375 C13.36880859 73.65050781 14.11066406 72.92992188 14.875 72.1875 C16.34723193 70.74962439 17.81739156 69.30962292 19.28515625 67.8671875 C19.93750244 67.23280762 20.58984863 66.59842773 21.26196289 65.94482422 C22.90136 64.37790833 22.90136 64.37790833 23.8125 62.3125 C6.62399382 60.12425749 -10.56208225 58.72387394 -27.875 58 C-29.16255692 57.94596386 -30.45011383 57.89192772 -31.77668762 57.83625412 C-58.66266539 56.86958338 -85.26708937 56.55302479 -106.1184845 75.54431152 C-114.63695035 83.82763022 -122.39554052 92.7045169 -129.9375 101.875 C-163.64534662 142.8319759 -163.64534662 142.8319759 -185.07202911 145.26217079 C-193.15829051 145.93702947 -201.10022443 145.84346651 -209.1875 145.25 C-210.03970627 145.18822193 -210.89191254 145.12644386 -211.76994324 145.06279373 C-237.21609016 143.06583652 -237.21609016 143.06583652 -248.1875 138.3125 C-246.02261726 135.33578623 -243.74528376 132.86864875 -240.93359375 130.5234375 C-234.89273071 125.29383887 -229.31327971 119.58744406 -223.67602539 113.93139648 C-221.73372735 111.98368197 -219.7860686 110.0414407 -217.83789062 108.09960938 C-216.60124125 106.86230017 -215.36490158 105.62468132 -214.12890625 104.38671875 C-213.54669815 103.80653488 -212.96449005 103.22635101 -212.36463928 102.62858582 C-209.41478914 99.74425555 -209.41478914 99.74425555 -207.1875 96.3125 C-206.5275 96.3125 -205.8675 96.3125 -205.1875 96.3125 C-205.1875 95.6525 -205.1875 94.9925 -205.1875 94.3125 C-204.09712685 93.26924309 -204.09712685 93.26924309 -202.98472595 92.20491028 C-199.60672784 88.95236194 -197.66248454 85.11719848 -195.43188477 81.03393555 C-188.52484253 68.9408631 -180.50414222 57.82103443 -171.75 47 C-170.54872278 45.51411062 -170.54872278 45.51411062 -169.32317734 43.99820328 C-126.17442991 -7.97484441 -62.14339738 -1.71361276 0 0 Z M42.6875 122.6875 C41.77742188 123.49960938 40.86734375 124.31171875 39.9296875 125.1484375 C37.57939239 127.04618827 37.57939239 127.04618827 37.8125 129.3125 C37.173125 129.580625 36.53375 129.84875 35.875 130.125 C33.48118314 131.19917752 33.48118314 131.19917752 32.8125 134.3125 C32.1525 134.3125 31.4925 134.3125 30.8125 134.3125 C30.8125 134.9725 30.8125 135.6325 30.8125 136.3125 C30.19375 136.56 29.575 136.8075 28.9375 137.0625 C26.67503506 138.13393729 26.67503506 138.13393729 25.8125 140.3125 C24.53621549 142.86506903 23.33122998 143.06521506 20.8125 144.3125 C19.12457344 145.68273395 19.12457344 145.68273395 17.52856445 147.29003906 C16.91145096 147.89116516 16.29433746 148.49229126 15.65852356 149.1116333 C15.0042186 149.76057556 14.34991364 150.40951782 13.67578125 151.078125 C12.99573532 151.74914246 12.31568939 152.42015991 11.61503601 153.11151123 C10.1809861 154.53107142 8.74971632 155.95344487 7.32104492 157.37841797 C5.13458878 159.55296346 2.93018404 161.70815206 0.72460938 163.86328125 C-0.66781392 165.24624168 -2.05912797 166.63032004 -3.44921875 168.015625 C-4.43978523 168.97689301 -4.43978523 168.97689301 -5.45036316 169.95758057 C-6.05802017 170.57131531 -6.66567719 171.18505005 -7.29174805 171.81738281 C-8.09638741 172.6144162 -8.09638741 172.6144162 -8.9172821 173.42755127 C-11.77046915 177.66155814 -11.29681574 182.94430417 -11.20922852 187.86865234 C-11.18913223 189.14952728 -11.16903595 190.43040222 -11.14833069 191.75009155 C-11.12114058 193.13287586 -11.09382964 194.5156578 -11.06640625 195.8984375 C-11.04207802 197.32474981 -11.01823585 198.75107048 -10.99485779 200.17739868 C-10.93228556 203.91584872 -10.86314417 207.65414903 -10.79260254 211.39245605 C-10.72167512 215.21339143 -10.65700466 219.03443224 -10.59179688 222.85546875 C-10.46313125 230.34126252 -10.32752079 237.8269091 -10.1875 245.3125 C-6.18029887 243.46174647 -3.40791511 240.82223534 -0.328125 237.71875 C0.22111633 237.17142212 0.77035767 236.62409424 1.33624268 236.06018066 C2.49175859 234.9060222 3.64476685 233.74934833 4.79541016 232.59033203 C6.563235 230.81176054 8.3415213 229.04415237 10.12109375 227.27734375 C11.24282971 226.15428692 12.36394551 225.03061024 13.484375 223.90625 C14.01867126 223.3760022 14.55296753 222.84575439 15.10345459 222.29943848 C17.93994611 219.77699631 17.93994611 219.77699631 18.8125 216.3125 C19.4725 216.3125 20.1325 216.3125 20.8125 216.3125 C22.2448278 214.89602329 22.2448278 214.89602329 23.75 213 C26.89576912 209.2967528 30.19325917 205.81011908 33.625 202.375 C34.10509521 201.8905542 34.58519043 201.4061084 35.07983398 200.90698242 C38.563304 197.437098 38.563304 197.437098 40.8125 196.3125 C40.8125 195.6525 40.8125 194.9925 40.8125 194.3125 C41.4725 194.3125 42.1325 194.3125 42.8125 194.3125 C47.0416542 190.60256676 50.31358306 186.59919021 51.52664185 181.03936768 C51.75113689 177.30718243 51.73926905 173.65136608 51.62890625 169.9140625 C51.61648905 168.54790861 51.60751399 167.18171957 51.60179138 165.81552124 C51.57713072 162.24853571 51.50363981 158.68418879 51.42010498 155.11816406 C51.35982104 152.2036515 51.33355139 149.28929432 51.30912876 146.37429237 C51.25858768 140.34878319 51.18130043 134.32369523 51.05297852 128.29931641 C51.03106949 127.23693756 51.00916046 126.17455872 50.98658752 125.07998657 C50.83524333 122.67405289 50.49901341 120.61398205 49.8125 118.3125 C46.56249325 118.3125 45.03601968 120.56647226 42.6875 122.6875 Z " fill="#ECEBEA" transform="translate(327.1875,16.6875)"/>
<path d="M0 0 C0.69294163 -0.00226556 1.38588326 -0.00453111 2.09982312 -0.00686532 C4.43905272 -0.01323305 6.77822481 -0.01237419 9.11746216 -0.0115509 C10.78759843 -0.01454069 12.457734 -0.0179428 14.12786865 -0.02172852 C18.67745623 -0.03059165 23.22702502 -0.03290761 27.77662039 -0.0335443 C31.56900073 -0.03449159 35.36137666 -0.03816785 39.15375531 -0.0417164 C48.0986911 -0.04986996 57.04361683 -0.05229983 65.98855591 -0.05158997 C75.22766704 -0.05098912 84.46671979 -0.06154025 93.70581615 -0.07733363 C101.62683954 -0.09039333 109.54784383 -0.09577452 117.46887791 -0.09513456 C122.20465399 -0.09487908 126.94037825 -0.09775742 131.67614365 -0.10831261 C136.12972861 -0.11796709 140.58321192 -0.11809107 145.03680038 -0.11079597 C146.67390083 -0.10974678 148.31100752 -0.11213276 149.94809723 -0.11815643 C152.178247 -0.12583238 154.40804189 -0.12126104 156.63818359 -0.11352539 C158.51254498 -0.11434254 158.51254498 -0.11434254 160.42477226 -0.1151762 C163.44607544 0.13371277 163.44607544 0.13371277 166.44607544 2.13371277 C167.04908752 4.8653717 167.04908752 4.8653717 167.35794067 8.39884949 C167.41536973 9.04420654 167.47279879 9.6895636 167.53196812 10.35447693 C168.24729894 18.89139866 168.63243591 27.44694228 168.88357544 36.00871277 C168.90919178 36.83145691 168.93480812 37.65420105 168.96120071 38.50187683 C169.48278174 57.48694919 169.69362928 74.39529767 156.32719421 89.23719788 C149.69501576 95.91889172 142.31766517 101.76896912 134.54544067 107.06340027 C130.85379818 109.66292652 128.09860275 112.59086311 125.21788025 116.04930115 C122.07748264 119.74377202 118.58747502 123.09418557 115.14138794 126.50090027 C114.37680267 127.26169891 113.61221741 128.02249756 112.82446289 128.80635071 C110.40910161 131.2096029 107.99050146 133.60955318 105.57107544 136.00871277 C102.36250005 139.19076056 99.1572088 142.37606392 95.95388794 145.56340027 C94.84619553 146.65864517 94.84619553 146.65864517 93.71612549 147.77601624 C93.03806854 148.45076996 92.3600116 149.12552368 91.66140747 149.82072449 C91.06297028 150.41392487 90.46453308 151.00712524 89.84796143 151.61830139 C88.34687019 153.09954084 88.34687019 153.09954084 87.44607544 155.13371277 C88.39154739 155.12927155 89.33701935 155.12483032 90.31114197 155.12025452 C99.21345962 155.07974292 108.11575861 155.04974497 117.01814747 155.03008842 C121.59515532 155.01964315 126.17208887 155.0054704 130.74905396 154.98283386 C135.16458048 154.96113198 139.58003545 154.94914975 143.99561119 154.94395828 C145.68175063 154.94025775 147.36788608 154.93303169 149.05399513 154.92225266 C151.41239568 154.90777293 153.77049905 154.90573334 156.12893677 154.90666199 C156.82880707 154.89947144 157.52867737 154.89228088 158.24975586 154.88487244 C161.88711109 154.90041049 163.32682782 155.05421435 166.44607544 157.13371277 C166.81356812 159.26568604 166.81356812 159.26568604 166.80252075 161.93473816 C166.8070224 163.43122643 166.8070224 163.43122643 166.81161499 164.95794678 C166.79309479 166.57829079 166.79309479 166.57829079 166.77420044 168.23136902 C166.77232727 169.3359697 166.7704541 170.44057037 166.76852417 171.5786438 C166.76179332 173.91644809 166.74785852 176.25424092 166.72732544 178.59196472 C166.69617472 182.18476231 166.68635701 185.77712168 166.68045044 189.37004089 C166.67128084 191.63632232 166.66090521 193.90259926 166.64920044 196.16886902 C166.64495056 197.25112259 166.64070068 198.33337616 166.63632202 199.44842529 C166.62671448 200.44293198 166.61710693 201.43743866 166.60720825 202.46208191 C166.59696625 203.78206932 166.59696625 203.78206932 166.58651733 205.12872314 C166.44607544 207.13371277 166.44607544 207.13371277 165.44607544 208.13371277 C163.24842257 208.23510828 161.04744666 208.26449364 158.84745789 208.26742554 C158.14972714 208.26969109 157.45199639 208.27195665 156.73312229 208.27429086 C154.37773928 208.2806586 152.02241341 208.27979973 149.66702271 208.27897644 C147.98541183 208.2819662 146.30380165 208.2853683 144.62219238 208.28915405 C140.04168123 208.2980168 135.46118873 208.30033311 130.88066983 208.30096984 C127.06334196 208.30191703 123.24601847 208.30559311 119.42869228 208.30914193 C110.42626502 208.31729511 101.42384776 208.31972538 92.42141724 208.3190155 C83.11980229 208.31841445 73.81824529 208.32896976 64.51664501 208.34475917 C56.54383303 208.35781313 48.57104003 208.36320031 40.59821743 208.36256009 C35.8306153 208.36230448 31.06306463 208.36519057 26.2954731 208.37573814 C21.81316429 208.38538318 17.33095652 208.38552318 12.84864426 208.37822151 C11.19983588 208.37717118 9.55102132 208.37956494 7.90222359 208.38558197 C5.65858714 208.39324192 3.41530486 208.38869742 1.17167664 208.38095093 C-0.71512896 208.38176808 -0.71512896 208.38176808 -2.64005184 208.38260174 C-5.55392456 208.13371277 -5.55392456 208.13371277 -7.55392456 206.13371277 C-7.74942719 203.42776783 -7.81876209 200.82431641 -7.80116272 198.11734009 C-7.80478434 196.86014281 -7.80478434 196.86014281 -7.80847913 195.57754761 C-7.81414069 192.7530111 -7.80543458 189.9286983 -7.79684448 187.10417175 C-7.79791675 185.08581989 -7.7998546 183.06746833 -7.80259705 181.04911804 C-7.8074571 175.55551266 -7.7997755 170.06198812 -7.789644 164.56839252 C-7.78088351 158.83130146 -7.78262055 153.09421308 -7.78300476 147.3571167 C-7.78206728 137.7221694 -7.77337161 128.08725354 -7.75973511 118.45231628 C-7.74400425 107.29603517 -7.73873711 96.13978849 -7.73947066 84.98349708 C-7.74007999 74.27166796 -7.73498355 63.55985011 -7.72667885 52.84802437 C-7.72313866 48.27984085 -7.72131455 43.71166131 -7.72078514 39.14347649 C-7.71978413 33.7698146 -7.71370747 28.39618188 -7.703619 23.0225296 C-7.7006863 21.04434195 -7.69947018 19.06615094 -7.70004654 17.0879612 C-7.70053359 14.39964323 -7.69491765 11.71140827 -7.68763733 9.02310181 C-7.68918593 8.22973449 -7.69073453 7.43636717 -7.69233006 6.61895841 C-7.66075735 -0.38065308 -6.82781947 0.00916254 0 0 Z M46.44607544 54.13371277 C46.44607544 73.60371277 46.44607544 93.07371277 46.44607544 113.13371277 C50.40880496 112.14303039 51.13077394 111.82444632 53.75857544 109.07121277 C54.36572388 108.43828308 54.97287231 107.80535339 55.59841919 107.15324402 C57.37217305 105.2144898 59.10349312 103.24728255 60.82107544 101.25871277 C66.6991959 94.46008128 73.07996228 88.26015696 80.01248169 82.54386902 C80.48556763 82.07851746 80.95865356 81.61316589 81.44607544 81.13371277 C81.44607544 80.47371277 81.44607544 79.81371277 81.44607544 79.13371277 C82.76607544 78.47371277 84.08607544 77.81371277 85.44607544 77.13371277 C85.44607544 76.47371277 85.44607544 75.81371277 85.44607544 75.13371277 C86.10607544 75.13371277 86.76607544 75.13371277 87.44607544 75.13371277 C88.91019666 73.64693616 88.91019666 73.64693616 90.44607544 71.69621277 C94.05203045 67.42220714 98.05713889 63.83240913 102.30935669 60.21183777 C104.75823372 58.05837005 104.75823372 58.05837005 106.44607544 54.13371277 C86.64607544 54.13371277 66.84607544 54.13371277 46.44607544 54.13371277 Z " fill="#EBEAE9" transform="translate(59.553924560546875,189.8662872314453)"/>
<path d="M0 0 C0.99 0.495 0.99 0.495 2 1 C-2.68100334 6.38532097 -7.36897227 11.47950867 -12.82421875 16.08203125 C-18.18174594 20.80473475 -23.3122071 25.98750249 -28.06436157 31.31375122 C-30.53284605 33.57253192 -32.51699392 34.97539562 -35.38143921 36.59616089 C-51.26844331 45.64604337 -66.58326829 58.34460512 -73 76 C-81.72972835 108.35675384 -77.22970009 146.1474536 -76.0251224 179.236099 C-75.69211792 188.54925699 -75.46222019 197.85932881 -75.30712891 207.17675781 C-75.29609452 207.83779743 -75.28506013 208.49883705 -75.27369137 209.17990817 C-75.21885847 212.49793502 -75.16588385 215.81598852 -75.11359143 219.13405633 C-74.67800121 246.43209348 -73.94242858 273.71507697 -73 301 C-69.7 297.7 -66.4 294.4 -63 291 C-62.34 291.33 -61.68 291.66 -61 292 C-62.57032843 293.84603495 -64.15450308 295.6759347 -65.75 297.5 C-66.41515625 298.28697266 -66.41515625 298.28697266 -67.09375 299.08984375 C-68.421875 300.59375 -68.421875 300.59375 -71 303 C-72.32 303 -73.64 303 -75 303 C-76.44069259 274.33387907 -77.50791037 245.67333628 -78.16054249 216.97801685 C-78.22272928 214.29822094 -78.2862507 211.61846001 -78.35083008 208.9387207 C-78.36683101 208.27286147 -78.38283195 207.60700224 -78.39931776 206.92096546 C-78.64511678 196.94214738 -79.07332769 186.9823671 -79.60180664 177.01391602 C-84.59954449 80.91032219 -84.59954449 80.91032219 -59.21116054 51.71455944 C-46.2109325 37.35977364 -30.62928077 24.00799723 -14 14 C-13.34 14 -12.68 14 -12 14 C-11.66355469 13.17242187 -11.66355469 13.17242187 -11.3203125 12.328125 C-9.59614817 9.28788256 -7.37484178 7.18574327 -4.875 4.75 C-3.96492188 3.85796875 -3.05484375 2.9659375 -2.1171875 2.046875 C-1.06917969 1.03367187 -1.06917969 1.03367187 0 0 Z " fill="#B9B4B2" transform="translate(344,87)"/>
<path d="M0 0 C0.68110698 0.01769455 1.36221396 0.03538911 2.06396055 0.05361986 C20.02164917 0.52910151 37.95293193 1.39534638 55.875 2.625 C55.875 5.625 55.875 5.625 54.34375 7.23046875 C53.6940625 7.75253906 53.044375 8.27460937 52.375 8.8125 C51.7253125 9.34230469 51.075625 9.87210937 50.40625 10.41796875 C49.9009375 10.81628906 49.395625 11.21460937 48.875 11.625 C47.885 11.13 47.885 11.13 46.875 10.625 C49.35 7.655 49.35 7.655 51.875 4.625 C33.92729573 3.51703339 15.97893739 2.82799356 -2 2.5 C-3.30617657 2.47592449 -4.61235313 2.45184898 -5.95811081 2.42704391 C-47.39560327 0.71914452 -47.39560327 0.71914452 -82.6710968 19.26554871 C-90.84745904 27.61765985 -97.69780785 37.29394463 -103.125 47.625 C-103.125 36.58667475 -90.20471658 23.4234912 -82.95343781 16.05802917 C-60.98390163 -4.82337968 -28.21741396 -0.75117268 0 0 Z " fill="#CBC2C1" transform="translate(299.125,74.375)"/>
<path d="M0 0 C1.70209877 0.00333092 1.70209877 0.00333092 3.43858337 0.00672913 C4.71983597 0.00680466 6.00108856 0.00688019 7.32116699 0.00695801 C8.73001646 0.01206542 10.13886554 0.01728143 11.54771423 0.02259827 C12.98118033 0.02446249 14.41464706 0.02588637 15.84811401 0.02688599 C19.62765755 0.03071079 23.40716288 0.04054075 27.18669128 0.05158997 C31.04075097 0.06180489 34.8948168 0.06638378 38.74888611 0.07142639 C46.31596085 0.08216306 53.88300407 0.09923903 61.45005798 0.12025452 C61.12005798 1.44025452 60.79005798 2.76025452 60.45005798 4.12025452 C59.79005798 4.12025452 59.13005798 4.12025452 58.45005798 4.12025452 C58.18193298 4.69775452 57.91380798 5.27525452 57.63755798 5.87025452 C56.42523191 8.16729339 55.04736249 10.07570475 53.45005798 12.12025452 C52.99630798 12.84212952 52.54255798 13.56400452 52.07505798 14.30775452 C50.00703786 16.61439234 48.47042612 16.79372823 45.45005798 17.12025452 C46.88113618 13.72889733 48.62070981 11.88260494 51.45005798 9.55775452 C54.00778261 7.44669136 55.58319299 5.92055201 57.45005798 3.12025452 C28.24505798 2.62525452 28.24505798 2.62525452 -1.54994202 2.12025452 C-1.54994202 21.59025452 -1.54994202 41.06025452 -1.54994202 61.12025452 C1.99935336 58.99067729 4.07664097 57.74359791 6.76255798 54.93275452 C7.64943298 54.00462952 8.53630798 53.07650452 9.45005798 52.12025452 C10.11005798 52.45025452 10.77005798 52.78025452 11.45005798 53.12025452 C9.83119383 54.79288168 8.20478508 56.45820988 6.57505798 58.12025452 C5.67013611 59.04837952 4.76521423 59.97650452 3.83287048 60.93275452 C1.45005798 63.12025452 1.45005798 63.12025452 -0.54994202 63.12025452 C-0.54994202 64.11025452 -0.54994202 65.10025452 -0.54994202 66.12025452 C-1.53994202 66.12025452 -2.52994202 66.12025452 -3.54994202 66.12025452 C-3.57306861 57.66258118 -3.59085872 49.20492095 -3.60175419 40.74722385 C-3.60698233 36.82036793 -3.61407871 32.89353357 -3.62538147 28.96669006 C-3.63621282 25.18011194 -3.64221937 21.39355462 -3.64481926 17.6069622 C-3.64667306 16.15921132 -3.65029283 14.71146163 -3.65567207 13.26371956 C-3.66288569 11.24268317 -3.6633501 9.22162604 -3.66346741 7.20057678 C-3.66568802 6.04807938 -3.66790863 4.89558197 -3.67019653 3.7081604 C-3.50938215 0.24739659 -3.45716236 0.16303876 0 0 Z " fill="#CBBBBD" transform="translate(107.54994201660156,241.87974548339844)"/>
<path d="M0 0 C0.66 0.33 1.32 0.66 2 1 C1.21761963 1.75619629 0.43523926 2.51239258 -0.37084961 3.29150391 C-3.27777222 6.10773993 -6.1679626 8.94064499 -9.0534668 11.77880859 C-10.30321401 13.00345398 -11.55741772 14.22356903 -12.81616211 15.43896484 C-14.62772076 17.1896849 -16.42247802 18.95622371 -18.21484375 20.7265625 C-18.77840073 21.26431305 -19.3419577 21.8020636 -19.92259216 22.35610962 C-24.34523979 26.77554812 -24.88798224 30.06462588 -25.12025452 36.1512146 C-25.11803391 37.27484406 -25.11581329 38.39847351 -25.11352539 39.55615234 C-25.11344986 40.83702728 -25.11337433 42.11790222 -25.11329651 43.43759155 C-25.10819105 44.82037394 -25.10297508 46.20315592 -25.09765625 47.5859375 C-25.09578917 49.01225739 -25.09436664 50.43857792 -25.09336853 51.86489868 C-25.08956615 55.60326942 -25.07975552 59.34160078 -25.06866455 63.07995605 C-25.05840124 66.90095487 -25.0538604 70.7219601 -25.04882812 74.54296875 C-25.03813103 82.02866371 -25.02108223 89.51432632 -25 97 C-20.50472062 93.11769936 -16.08407932 89.21088504 -11.87890625 85.01171875 C-11.00685547 84.14095703 -10.13480469 83.27019531 -9.23632812 82.37304688 C-7.9127832 81.04370117 -7.9127832 81.04370117 -6.5625 79.6875 C-5.65306641 78.78193359 -4.74363281 77.87636719 -3.80664062 76.94335938 C-2.94361328 76.07904297 -2.08058594 75.21472656 -1.19140625 74.32421875 C-0.40967041 73.54135498 0.37206543 72.75849121 1.17749023 71.9519043 C3.05529367 70.12569468 3.05529367 70.12569468 4 68 C4.66 68 5.32 68 6 68 C6.66 66.68 7.32 65.36 8 64 C8.66 64 9.32 64 10 64 C10.20367187 63.46890625 10.40734375 62.9378125 10.6171875 62.390625 C12.59505609 58.97125896 15.30326899 56.48662079 18.125 53.75 C18.68832031 53.19570312 19.25164062 52.64140625 19.83203125 52.0703125 C21.21686028 50.70895515 22.60783204 49.35385141 24 48 C24.99 48.495 24.99 48.495 26 49 C24.25719203 50.96516623 22.50635594 52.92200369 20.75 54.875 C20.25886719 55.43058594 19.76773438 55.98617187 19.26171875 56.55859375 C16.66128839 59.43640334 14.44583864 61.30757483 11 63 C10.69852554 63.60858856 10.39705109 64.21717712 10.08644104 64.84420776 C8.9244192 67.14997271 7.68339734 68.55213747 5.85131836 70.35986328 C5.21403305 70.99376984 4.57674774 71.62767639 3.92015076 72.28079224 C2.89039879 73.29035477 2.89039879 73.29035477 1.83984375 74.3203125 C0.78223595 75.37011795 0.78223595 75.37011795 -0.29673767 76.44113159 C-2.5472953 78.67388982 -4.80442896 80.89984265 -7.0625 83.125 C-9.32325698 85.35816043 -11.58255022 87.59275286 -13.838974 89.83029175 C-15.24295051 91.22198888 -16.64959108 92.61100444 -18.05909729 93.99710083 C-19.01029701 94.93850418 -19.01029701 94.93850418 -19.98071289 95.89892578 C-20.54093643 96.4508963 -21.10115997 97.00286682 -21.67835999 97.57156372 C-23.10804773 98.98344859 -23.10804773 98.98344859 -24 101 C-24.99 101 -25.98 101 -27 101 C-27.81336236 89.23674605 -28.37137014 77.47463265 -28.6875 65.6875 C-28.71061249 64.83169594 -28.73372498 63.97589188 -28.75753784 63.09415436 C-29.64398143 26.02757032 -29.64398143 26.02757032 -19.19572449 14.01292419 C-13.56653064 8.32197653 -7.07134862 3.7209559 0 0 Z " fill="#B9ADAE" transform="translate(342,165)"/>
<path d="M0 0 C1.98 0 3.96 0 6 0 C4.68 0.33 3.36 0.66 2 1 C2 20.47 2 39.94 2 60 C5.54929537 57.87042278 7.62658298 56.62334339 10.3125 53.8125 C11.199375 52.884375 12.08625 51.95625 13 51 C13.66 51.33 14.32 51.66 15 52 C13.38113585 53.67262717 11.7547271 55.33795537 10.125 57 C9.22007813 57.928125 8.31515625 58.85625 7.3828125 59.8125 C5 62 5 62 3 62 C3 62.99 3 63.98 3 65 C2.01 65 1.02 65 0 65 C0 43.55 0 22.1 0 0 Z " fill="#C9BBBB" transform="translate(104,243)"/>
<path d="M0 0 C8.16235313 -0.04632061 16.32465143 -0.08186773 24.48710346 -0.10362434 C28.27717541 -0.11406591 32.0671575 -0.12823182 35.85717773 -0.15087891 C39.51409477 -0.17259413 43.17092531 -0.18456582 46.82790184 -0.18975449 C48.22377064 -0.19345263 49.61963466 -0.20067411 51.01546669 -0.21146011 C52.96900449 -0.22595663 54.92262913 -0.22681676 56.8762207 -0.22705078 C58.5450103 -0.23371262 58.5450103 -0.23371262 60.24751282 -0.24050903 C63 0 63 0 66 2 C44.88 2.33 23.76 2.66 2 3 C1.67 24.12 1.34 45.24 1 67 C0.67 67 0.34 67 0 67 C-0.17399929 62.28031851 -0.33349542 57.5603907 -0.48217773 52.83984375 C-0.53397951 51.25020633 -0.58907158 49.66067107 -0.64819336 48.07128906 C-1.24053297 32.02146109 -0.65152739 16.03798455 0 0 Z " fill="#FDF8F6" transform="translate(103,240)"/>
<path d="M0 0 C0 3 0 3 -1 5 C18.14 5 37.28 5 57 5 C57 5.66 57 6.32 57 7 C36.54 7 16.08 7 -5 7 C-3.38262276 3.76524552 -2.52370777 2.29427979 0 0 Z " fill="#C2B8B7" transform="translate(148,340)"/>
<path d="M0 0 C37.95 0 75.9 0 115 0 C113.21844267 3.56311466 111.83236991 5.35645475 109 8 C108.01 7.505 108.01 7.505 107 7 C108.65 5.02 110.3 3.04 112 1 C75.04 1 38.08 1 0 1 C0 0.67 0 0.34 0 0 Z " fill="#A19695" transform="translate(239,78)"/>
<path d="M0 0 C0.66 0.33 1.32 0.66 2 1 C-2.68100334 6.38532097 -7.36897227 11.47950867 -12.82421875 16.08203125 C-17.43770821 20.14885948 -21.68238335 24.62429882 -26 29 C-27.66587705 30.66745591 -29.33265038 32.33401656 -31 34 C-31.88405518 34.88405518 -32.76811035 35.76811035 -33.67895508 36.67895508 C-40.45263672 43.45263672 -47.22631836 50.22631836 -54 57 C-54 54 -54 54 -52.49490356 52.12068176 C-51.79034027 51.41674789 -51.08577698 50.71281403 -50.35986328 49.98754883 C-49.56548859 49.18694534 -48.77111389 48.38634186 -47.95266724 47.56147766 C-47.08399017 46.70201035 -46.21531311 45.84254303 -45.3203125 44.95703125 C-44.43721405 44.0734343 -43.5541156 43.18983734 -42.64425659 42.27946472 C-40.77299728 40.41054926 -38.89910148 38.54483307 -37.02001953 36.68383789 C-34.60813561 34.29465765 -32.20749836 31.89454524 -29.8103199 29.49062061 C-27.52719445 27.20335664 -25.23604529 24.92417258 -22.9453125 22.64453125 C-22.0806839 21.77899124 -21.2160553 20.91345123 -20.32522583 20.02168274 C-19.52454681 19.23053574 -18.7238678 18.43938873 -17.89892578 17.62426758 C-17.1927713 16.92272049 -16.48661682 16.2211734 -15.75906372 15.49836731 C-14 14 -14 14 -12 14 C-11.66355469 13.17242187 -11.66355469 13.17242187 -11.3203125 12.328125 C-9.59614817 9.28788256 -7.37484178 7.18574327 -4.875 4.75 C-3.96492188 3.85796875 -3.05484375 2.9659375 -2.1171875 2.046875 C-1.41851562 1.37140625 -0.71984375 0.6959375 0 0 Z " fill="#BAB3B2" transform="translate(344,87)"/>
<path d="M0 0 C0.16248762 9.2665317 0.28671755 18.53257003 0.3626852 27.80021763 C0.39915422 32.10406013 0.44858473 36.40692514 0.52807617 40.71020508 C0.60436808 44.86648538 0.6460379 49.02182813 0.6641407 53.17875481 C0.67703384 54.76124769 0.70221289 56.34369159 0.7401104 57.92578316 C1.02494911 70.31421059 1.02494911 70.31421059 -1.4994812 74.46627808 C-3.24186953 76.2251708 -4.96971179 77.59419875 -7 79 C-8.0179595 79.981712 -9.02388105 80.97667611 -10 82 C-10.33 81.34 -10.66 80.68 -11 80 C-10.34 80 -9.68 80 -9 80 C-8.773125 79.46375 -8.54625 78.9275 -8.3125 78.375 C-7 76 -7 76 -4.44848633 73.79052734 C-0.15314594 68.65447512 -1.39387422 61.29987786 -1.51171875 54.9765625 C-1.52105353 53.50541387 -1.5281665 52.03424961 -1.53315735 50.56307983 C-1.55217544 46.7059172 -1.60122917 42.84970793 -1.65667725 38.99291992 C-1.70798324 35.0514007 -1.73069544 31.10972622 -1.75585938 27.16796875 C-1.80935495 19.4448796 -1.89460223 11.72257379 -2 4 C-3.65 4.66 -5.3 5.32 -7 6 C-3.61538462 0 -3.61538462 0 0 0 Z " fill="#BCB4B5" transform="translate(379,131)"/>
<path d="M0 0 C0.33 0 0.66 0 1 0 C1.33 17.16 1.66 34.32 2 52 C5.3 48.7 8.6 45.4 12 42 C12.66 42.33 13.32 42.66 14 43 C12.42967157 44.84603495 10.84549692 46.6759347 9.25 48.5 C8.8065625 49.02464844 8.363125 49.54929687 7.90625 50.08984375 C6.578125 51.59375 6.578125 51.59375 4 54 C2.68 54 1.36 54 0 54 C0 36.18 0 18.36 0 0 Z " fill="#ACA4A3" transform="translate(269,336)"/>
<path d="M0 0 C0.33 0 0.66 0 1 0 C1 14.85 1 29.7 1 45 C4.54929537 42.87042278 6.62658298 41.62334339 9.3125 38.8125 C10.199375 37.884375 11.08625 36.95625 12 36 C12.66 36.33 13.32 36.66 14 37 C12.38113585 38.67262717 10.7547271 40.33795537 9.125 42 C8.22007813 42.928125 7.31515625 43.85625 6.3828125 44.8125 C4 47 4 47 2 47 C2 47.66 2 48.32 2 49 C1.34 49 0.68 49 0 49 C0 32.83 0 16.66 0 0 Z " fill="#B4A4A4" transform="translate(105,258)"/>
<path d="M0 0 C0.66 0.33 1.32 0.66 2 1 C1.01 1 0.02 1 -1 1 C-0.67 0.67 -0.34 0.34 0 0 Z M-2 2 C-2 5.99897642 -3.35316035 7.06701552 -6 10 C-6.9075 10.70125 -7.815 11.4025 -8.75 12.125 C-9.4925 12.74375 -10.235 13.3625 -11 14 C-11 14.99 -11 15.98 -11 17 C-11.70125 17.185625 -12.4025 17.37125 -13.125 17.5625 C-16.54542512 19.27271256 -18.14215274 21.31046933 -20.5078125 24.24609375 C-22.42883441 26.50404883 -24.61771659 28.24832102 -27 30 C-27 27 -27 27 -24.70507812 24.36450195 C-23.6548023 23.3147016 -22.59625766 22.27313331 -21.53125 21.23828125 C-20.97634888 20.68762497 -20.42144775 20.13696869 -19.84973145 19.56962585 C-18.07339313 17.81009875 -16.2869152 16.06127835 -14.5 14.3125 C-13.29489115 13.12243479 -12.09045517 11.93168777 -10.88671875 10.74023438 C-7.93223292 7.81885021 -4.96861031 4.90702744 -2 2 Z " fill="#F8F2F3" transform="translate(159,76)"/>
<path d="M0 0 C0.66 0.33 1.32 0.66 2 1 C0.25719203 2.96516623 -1.49364406 4.92200369 -3.25 6.875 C-3.74113281 7.43058594 -4.23226563 7.98617187 -4.73828125 8.55859375 C-7.30503407 11.39913354 -9.47832921 13.48259807 -13 15 C-13.28875 15.598125 -13.5775 16.19625 -13.875 16.8125 C-15.55805758 20.08511196 -18.11451985 21.74179814 -21 24 C-20.67 22.68 -20.34 21.36 -20 20 C-19.34 20 -18.68 20 -18 20 C-17.34 18.68 -16.68 17.36 -16 16 C-15.34 16 -14.68 16 -14 16 C-13.79632813 15.46890625 -13.59265625 14.9378125 -13.3828125 14.390625 C-11.40494391 10.97125896 -8.69673101 8.48662079 -5.875 5.75 C-5.31167969 5.19570312 -4.74835938 4.64140625 -4.16796875 4.0703125 C-2.78313972 2.70895515 -1.39216796 1.35385141 0 0 Z " fill="#C0B9BA" transform="translate(366,213)"/>
<path d="M0 0 C1.65 0.99 3.3 1.98 5 3 C5.33 2.34 5.66 1.68 6 1 C6 1.66 6 2.32 6 3 C17.88 3 29.76 3 42 3 C42 3.33 42 3.66 42 4 C27.15 4 12.3 4 -3 4 C-2.01 2.68 -1.02 1.36 0 0 Z " fill="#F8F1F3" transform="translate(86,150)"/>
<path d="M0 0 C0.99 0 1.98 0 3 0 C3.33 0.99 3.66 1.98 4 3 C2.02 3.99 2.02 3.99 0 5 C0 5.99 0 6.98 0 8 C-0.66 8 -1.32 8 -2 8 C-2.268125 8.61875 -2.53625 9.2375 -2.8125 9.875 C-4 12 -4 12 -7 14 C-7.99 13.34 -8.98 12.68 -10 12 C-9.44570313 11.46890625 -8.89140625 10.9378125 -8.3203125 10.390625 C-7.59585937 9.68421875 -6.87140625 8.9778125 -6.125 8.25 C-5.04605469 7.20585937 -5.04605469 7.20585937 -3.9453125 6.140625 C-2.13520321 4.14877783 -1.05151914 2.4572342 0 0 Z " fill="#E5E3E0" transform="translate(309,124)"/>
<path d="M0 0 C0.66 0.33 1.32 0.66 2 1 C-1.11692909 4.17469938 -4.24483546 7.33835392 -7.375 10.5 C-8.26445312 11.40621094 -9.15390625 12.31242187 -10.0703125 13.24609375 C-10.92109375 14.10332031 -11.771875 14.96054687 -12.6484375 15.84375 C-13.43395996 16.63974609 -14.21948242 17.43574219 -15.02880859 18.25585938 C-17 20 -17 20 -19 20 C-17.92151387 16.76454161 -17.31920277 16.2149361 -14.75 14.1875 C-12.26938171 12.15512485 -10.17863403 10.1391782 -8.1875 7.625 C-7.465625 6.75875 -6.74375 5.8925 -6 5 C-5.34 5 -4.68 5 -4 5 C-3.71125 4.360625 -3.4225 3.72125 -3.125 3.0625 C-2 1 -2 1 0 0 Z " fill="#C5BEBE" transform="translate(151,260)"/>
<path d="M0 0 C0.99 0.33 1.98 0.66 3 1 C2.34 2.98 1.68 4.96 1 7 C-0.32 6.67 -1.64 6.34 -3 6 C-4.07525194 8.65228812 -5.09456151 11.28368454 -6 14 C-6.99 13.67 -7.98 13.34 -9 13 C-8.649375 12.21625 -8.29875 11.4325 -7.9375 10.625 C-7.628125 9.75875 -7.31875 8.8925 -7 8 C-7.33 7.34 -7.66 6.68 -8 6 C-7.236875 5.566875 -6.47375 5.13375 -5.6875 4.6875 C-3.41906232 3.26313215 -1.7800277 1.96739903 0 0 Z " fill="#E8E4E4" transform="translate(353,80)"/>
<path d="M0 0 C0 3.61029169 -0.96092582 6.55806676 -2 10 C-2.87398437 9.66162109 -2.87398437 9.66162109 -3.765625 9.31640625 C-6.05727616 8.74590669 -6.05727616 8.74590669 -7.921875 10.21484375 C-8.52515625 10.78332031 -9.1284375 11.35179687 -9.75 11.9375 C-10.67039062 12.78634766 -10.67039062 12.78634766 -11.609375 13.65234375 C-12.06828125 14.09707031 -12.5271875 14.54179687 -13 15 C-13 12 -13 12 -11.42578125 10.3515625 C-10.72839844 9.78179687 -10.03101562 9.21203125 -9.3125 8.625 C-6.03135631 5.88002899 -2.97663714 3.06965705 0 0 Z " fill="#D7D1D3" transform="translate(96,138)"/>
<path d="M0 0 C0.99 0.33 1.98 0.66 3 1 C1.8553125 2.3303125 1.8553125 2.3303125 0.6875 3.6875 C-1.04217095 5.72638586 -2.20456905 7.4002438 -3.4375 9.8125 C-5 12 -5 12 -8.1875 12.8125 C-9.115625 12.874375 -10.04375 12.93625 -11 13 C-10.62488281 12.56429687 -10.24976563 12.12859375 -9.86328125 11.6796875 C-6.54140223 7.81392401 -3.25357073 3.92342352 0 0 Z " fill="#F4F1F0" transform="translate(366,215)"/>
<path d="M0 0 C0.66 0.33 1.32 0.66 2 1 C2 3.64 2 6.28 2 9 C-0.3125 9.625 -0.3125 9.625 -3 10 C-3.99 9.34 -4.98 8.68 -6 8 C-5.38125 7.79375 -4.7625 7.5875 -4.125 7.375 C-1.15346355 5.45224112 -0.86975341 3.33405473 0 0 Z " fill="#E4E2E0" transform="translate(324,109)"/>
<path d="M0 0 C0.66 0.33 1.32 0.66 2 1 C1.3503125 1.59748047 1.3503125 1.59748047 0.6875 2.20703125 C0.130625 2.73683594 -0.42625 3.26664063 -1 3.8125 C-1.556875 4.33457031 -2.11375 4.85664062 -2.6875 5.39453125 C-4.316465 7.04148967 -4.316465 7.04148967 -4 10 C-4.5775 10.268125 -5.155 10.53625 -5.75 10.8125 C-8.0325868 12.01719859 -9.9737942 13.40798115 -12 15 C-12.66 14.67 -13.32 14.34 -14 14 C-9.38 9.38 -4.76 4.76 0 0 Z " fill="#F8F1F1" transform="translate(175,60)"/>
<path d="M0 0 C1.65 1.32 3.3 2.64 5 4 C3.56665422 5.62866544 2.12817021 7.25280994 0.6875 8.875 C-0.51326172 10.23238281 -0.51326172 10.23238281 -1.73828125 11.6171875 C-4 14 -4 14 -7 16 C-5.63629701 13.00779732 -4.05091917 10.70973471 -1.875 8.25 C-1.33617187 7.63640625 -0.79734375 7.0228125 -0.2421875 6.390625 C0.37269531 5.70226562 0.37269531 5.70226562 1 5 C0.34 4.67 -0.32 4.34 -1 4 C-0.67 2.68 -0.34 1.36 0 0 Z " fill="#D1C9C7" transform="translate(290,362)"/>
<path d="M0 0 C5.94 0 11.88 0 18 0 C16.21844267 3.56311466 14.83236991 5.35645475 12 8 C11.34 7.67 10.68 7.34 10 7 C11.65 5.02 13.3 3.04 15 1 C10.05 1 5.1 1 0 1 C0 0.67 0 0.34 0 0 Z " fill="#B1A3A4" transform="translate(336,78)"/>
<path d="M0 0 C0.33 0 0.66 0 1 0 C1 1.65 1 3.3 1 5 C3.31 3.35 5.62 1.7 8 0 C6.4705003 3.44137432 4.54630448 6.2222133 2 9 C1.01 9 0.02 9 -1 9 C-0.67 6.03 -0.34 3.06 0 0 Z " fill="#B8ACAE" transform="translate(316,257)"/>
<path d="M0 0 C0.66 0.33 1.32 0.66 2 1 C0.5484451 2.67257355 -0.91144409 4.33791758 -2.375 6 C-3.18710937 6.928125 -3.99921875 7.85625 -4.8359375 8.8125 C-5.55007813 9.534375 -6.26421875 10.25625 -7 11 C-7.66 11 -8.32 11 -9 11 C-7.59155282 7.78475695 -5.89655214 5.67816132 -3.375 3.25 C-2.74335938 2.63640625 -2.11171875 2.0228125 -1.4609375 1.390625 C-0.73777344 0.70226562 -0.73777344 0.70226562 0 0 Z " fill="#C2BDBC" transform="translate(344,87)"/>
<path d="M0 0 C0.66 0.33 1.32 0.66 2 1 C1.01 2.485 1.01 2.485 0 4 C-0.66 4 -1.32 4 -2 4 C-2.226875 4.61875 -2.45375 5.2375 -2.6875 5.875 C-4.37929835 8.61410209 -5.99244161 9.05024472 -9 10 C-8.06409496 8.8944811 -7.12620142 7.79064547 -6.1875 6.6875 C-5.66542969 6.07261719 -5.14335938 5.45773437 -4.60546875 4.82421875 C-3.12827531 3.14575321 -1.59960869 1.56117966 0 0 Z " fill="#B2AAAB" transform="translate(129,281)"/>
<path d="M0 0 C1.65 0 3.3 0 5 0 C4.60196439 2.88575819 4.20990931 3.82189513 1.9375 5.75 C1.298125 6.1625 0.65875 6.575 0 7 C0 4.69 0 2.38 0 0 Z " fill="#E1DAD9" transform="translate(306,347)"/>
<path d="M0 0 C0.99 0.66 1.98 1.32 3 2 C0.69 4.31 -1.62 6.62 -4 9 C-4.33 8.01 -4.66 7.02 -5 6 C-4.360625 5.7525 -3.72125 5.505 -3.0625 5.25 C-0.81258459 4.18437567 -0.81258459 4.18437567 -0.25 1.875 C-0.1675 1.25625 -0.085 0.6375 0 0 Z " fill="#F9F3F0" transform="translate(167,144)"/>
<path d="M0 0 C1.65 0.33 3.3 0.66 5 1 C3.02 3.31 1.04 5.62 -1 8 C-1 5.16032769 -0.59732819 2.76264289 0 0 Z " fill="#DFD6D8" transform="translate(340,314)"/>
<path d="M0 0 C-3.465 2.97 -3.465 2.97 -7 6 C-7.33 4.35 -7.66 2.7 -8 1 C-2.25 -1.125 -2.25 -1.125 0 0 Z " fill="#DCD4D5" transform="translate(353,308)"/>
<path d="M0 0 C0.66 0.33 1.32 0.66 2 1 C-2.75 5.875 -2.75 5.875 -5 7 C-5.33 5.35 -5.66 3.7 -6 2 C-4.7934375 1.7834375 -4.7934375 1.7834375 -3.5625 1.5625 C-1.07896294 1.25864751 -1.07896294 1.25864751 0 0 Z " fill="#D8D0D0" transform="translate(352,155)"/>
<path d="M0 0 C0.75 1.625 0.75 1.625 1 4 C-0.9375 7.25 -0.9375 7.25 -3 10 C-3.99 9.34 -4.98 8.68 -6 8 C-5.195625 7.236875 -4.39125 6.47375 -3.5625 5.6875 C-0.83200976 3.20569102 -0.83200976 3.20569102 0 0 Z " fill="#F6F0EF" transform="translate(170,241)"/>
<path d="M0 0 C4.29 0 8.58 0 13 0 C12.67 0.99 12.34 1.98 12 3 C11.01 3.33 10.02 3.66 9 4 C9 3.34 9 2.68 9 2 C6.03 1.67 3.06 1.34 0 1 C0 0.67 0 0.34 0 0 Z " fill="#B5A6A6" transform="translate(156,243)"/>
<path d="M0 0 C0.99 0.33 1.98 0.66 3 1 C1.02 2.98 -0.96 4.96 -3 7 C-3.99 6.67 -4.98 6.34 -6 6 C-5.38125 5.7525 -4.7625 5.505 -4.125 5.25 C-1.64931313 3.79371361 -1.04874998 2.62187494 0 0 Z " fill="#F6EFEF" transform="translate(336,168)"/>
<path d="M0 0 C0.66 0.33 1.32 0.66 2 1 C-0.31 3.31 -2.62 5.62 -5 8 C-5.33 6.68 -5.66 5.36 -6 4 C-4.02 2.68 -2.04 1.36 0 0 Z " fill="#F9F3F4" transform="translate(360,145)"/>
<path d="M0 0 C0 2.31 0 4.62 0 7 C-0.33 6.01 -0.66 5.02 -1 4 C-2.65 4.66 -4.3 5.32 -6 6 C-2.61538462 0 -2.61538462 0 0 0 Z " fill="#B9A8AB" transform="translate(378,131)"/>
<path d="M0 0 C0.66 0 1.32 0 2 0 C2 2 2 2 -0.5 4.625 C-1.325 5.40875 -2.15 6.1925 -3 7 C-3.99 6.67 -4.98 6.34 -6 6 C-4 4 -2 2 0 0 Z " fill="#F5F1F0" transform="translate(130,283)"/>
<path d="M0 0 C0.66 0.33 1.32 0.66 2 1 C0.71937515 2.7074998 -0.61767557 4.37373596 -2 6 C-2.66 6 -3.32 6 -4 6 C-4.33 5.01 -4.66 4.02 -5 3 C-2.625 1.4375 -2.625 1.4375 0 0 Z " fill="#F5F1F3" transform="translate(373,283)"/>
<path d="M0 0 C0.66 0.66 1.32 1.32 2 2 C0.35 3.32 -1.3 4.64 -3 6 C-3.66 4.68 -4.32 3.36 -5 2 C-3.35 1.34 -1.7 0.68 0 0 Z " fill="#F7F0F0" transform="translate(206,106)"/>
<path d="M0 0 C1.32 0 2.64 0 4 0 C2.60667426 3.36720387 1.0210714 4.9859524 -2 7 C-1.34 4.69 -0.68 2.38 0 0 Z " fill="#F7F0EF" transform="translate(234,76)"/>
</svg>
